<svg width="238" height="304" viewBox="0 0 238 304" fill="none" xmlns="http://www.w3.org/2000/svg">
<path d="M133.833 213.347C145.105 213.069 171.114 209.437 181.493 205.977C187.755 203.889 193.016 206.227 192.348 213.909C191.68 221.591 167.716 235.347 148.093 238.541C136.125 240.49 107.847 243.217 90.4794 238.541C73.1117 233.865 53.1833 252.736 45.3901 262.756C40.3802 269.018 28.3564 285.635 20.3406 302" stroke="#D8B4FE" stroke-width="4" stroke-linecap="round"/>
<path d="M135.568 207.648C147.954 205.839 176.116 199.888 183.58 196.376C190.677 193.036 195.27 196.376 196.522 201.386C196.801 202.777 196.522 206.061 193.182 208.065" stroke="#D8B4FE" stroke-width="4" stroke-linecap="round"/>
<path d="M123.879 196.375C133.898 191.922 155.608 184.852 162.288 192.2" stroke="#D8B4FE" stroke-width="4" stroke-linecap="round"/>
<path d="M131.811 201.382C133.064 200.547 150.181 197.207 166.463 190.945C169.942 189.831 177.318 189.358 178.988 196.372" stroke="#D8B4FE" stroke-width="4" stroke-linecap="round"/>
<path d="M86.722 213.908C104.396 217.944 138.658 222.425 134.316 208.063C130.202 194.455 111.02 193.016 100.494 194.086C99.4236 194.195 98.3436 193.898 97.4664 193.274C69.5327 173.407 31.7885 198.736 17.0007 215.578C11.4341 222.258 8.65081 226.015 2.80591 235.2" stroke="#D8B4FE" stroke-width="4" stroke-linecap="round"/>
<path d="M83.3821 73.2887V73.2887C82.844 73.2863 82.6083 73.9581 83.0427 74.2756C94.0912 82.351 118.133 95.7433 137.899 92.5858C138.286 92.5239 138.683 92.5693 139.044 92.7256L157.123 100.569" stroke="black" stroke-width="4" stroke-linecap="round"/>
<path d="M66.2648 43.2188C64.0382 43.9146 59.6685 47.0597 60.0025 54.0736C60.5362 62.9711 67.295 68.5968 70.6076 70.9237C74.7825 73.4287 78.1726 73.2206 81.7119 73.2782C83.9587 73.3148 83.3821 73.2856 83.3821 73.2856C85.7479 73.1387 90.2289 71.4276 89.2269 65.7591" stroke="black" stroke-width="4" stroke-linecap="round"/>
<path d="M73.7796 30.2812C70.5788 31.3946 64.5947 35.5417 66.2647 43.2235C67.9346 50.9054 69.2158 53.1155 69.7725 54.2288C71.7036 58.4129 74.8237 60.8653 76.2933 61.6607C76.3988 61.7178 76.4991 61.7797 76.597 61.8489C78.6024 63.2674 83.5542 65.1795 89.2268 65.7638C90.8041 65.9263 96.001 66.0668 97.1592 66.1856C101.751 66.1856 104.674 64.4155 103.004 57.2235" stroke="black" stroke-width="4" stroke-linecap="round"/>
<path d="M81.457 15.6641C78.372 15.6641 71.6921 19.004 73.7796 30.2763C75.4496 39.2942 77.2873 43.369 79.7923 46.2915C82.2972 49.2139 85.6372 52.5539 90.6471 54.0734L102.827 57.1733C102.945 57.2034 103.065 57.2226 103.187 57.2307L105.483 57.3838C105.775 57.4033 106.068 57.3624 106.334 57.2401C108.859 56.0791 112.532 52.7732 109.684 47.3935" stroke="black" stroke-width="4" stroke-linecap="round"/>
<path d="M183.425 51.7192L169.534 44.95C168.921 44.6517 168.508 44.0657 168.403 43.3928C166.866 33.5604 159.086 14.742 138.492 10.2369C117.116 5.56096 101.752 3.00034 96.7423 2.30452C91.3149 1.33037 80.6271 2.13752 81.295 13.1593C81.3473 14.0211 81.4015 14.8561 81.4574 15.6643C82.1161 25.1926 84.3851 28.3396 87.3076 32.7815C91.9877 39.6751 96.8213 42.6532 98.9974 43.7868C103.004 45.8743 113.859 50.7337 114.694 40.2964V36.0869" stroke="black" stroke-width="4" stroke-linecap="round"/>
<path d="M138.491 10.2344C132.646 10.6519 113.525 13.6578 103.839 15.6618C94.1533 17.6658 96.4635 26.2383 98.8293 30.2741C103.207 36.4757 118.847 36.0896 124.304 33.8508C125.325 33.4319 126.679 33.3325 127.567 33.9882C137.311 41.1829 140.624 40.2939 154.106 40.2939" stroke="black" stroke-width="4" stroke-linecap="round"/>
<path d="M109.852 54.2266L109.684 106.263" stroke="#27272A" stroke-width="4" stroke-linecap="round"/>
<rect x="100.829" y="108.68" width="17.7096" height="9.35977" rx="4.67989" stroke="#27272A" stroke-width="4"/>
<path d="M109.684 119.203L109.684 149.263" stroke="#27272A" stroke-width="4" stroke-linecap="round"/>
<path d="M204.312 126.905L156.717 100.186C150.594 89.1917 146.113 65.033 173.835 54.6791C199.29 45.1716 223.504 57.1483 235.194 63.8284" stroke="black" stroke-width="4" stroke-linecap="round"/>
<path d="M98.4117 134.766H105.684C107.893 134.766 109.684 136.556 109.684 138.766V143.29C109.684 145.5 107.893 147.29 105.684 147.29H101.96C100.692 147.29 99.6642 146.262 99.6642 144.994V144.368C99.6642 143.446 100.412 142.698 101.334 142.698H101.543C102.35 142.698 103.004 142.044 103.004 141.237C103.004 140.43 102.35 139.776 101.543 139.776H98.4117C97.0282 139.776 95.9067 138.654 95.9067 137.271C95.9067 135.887 97.0282 134.766 98.4117 134.766Z" stroke="#27272A" stroke-width="4"/>
</svg>
