<svg width="408" height="302" viewBox="0 0 408 302" fill="none" xmlns="http://www.w3.org/2000/svg">
<path d="M123.835 169.453C126.736 169.453 129.635 170.032 132.15 171.478C163.329 189.399 171.74 238.711 168.658 269.538C167.375 293.918 150.051 298.409 134.654 298.409H82.687C51.2501 297.126 49.1117 277.451 48.6841 269.538C42.9654 210.445 68.8839 180.704 85.4585 171.274C87.8032 169.941 90.4934 169.453 93.1909 169.453H123.835ZM108.356 205.438C104.49 205.438 101.356 208.572 101.356 212.438V212.598C100.253 213.021 99.1612 213.575 98.1157 214.293C94.709 216.633 92.5277 220.202 91.731 224.592L91.6577 225.02C91.1023 228.509 91.7412 231.733 93.311 234.503C94.7947 237.121 96.9115 238.992 98.8276 240.332C100.752 241.678 102.822 242.726 104.555 243.545C106.571 244.498 107.696 244.958 109.04 245.634L109.438 245.845C110.308 246.336 110.779 246.801 111.021 247.108C111.289 247.45 111.328 247.661 111.335 247.718C111.341 247.76 111.366 247.953 111.086 248.216L110.948 248.333C110.075 248.991 109.054 249.427 107.909 249.649L107.41 249.731C105.487 249.993 103.436 249.654 101.802 248.978L101.481 248.838L101.149 248.696C97.7073 247.33 93.7614 248.889 92.2046 252.295C90.648 255.701 92.051 259.705 95.3364 261.413L95.6606 261.571L96.3989 261.894C97.9494 262.539 99.6402 263.048 101.415 263.381C101.856 266.821 104.795 269.48 108.356 269.48C112.222 269.48 115.356 266.346 115.356 262.48V261.886C116.736 261.267 118.087 260.483 119.376 259.511L119.763 259.209C123.706 256.036 125.909 251.086 125.211 245.863C124.502 240.557 120.996 236.143 115.833 233.387L115.328 233.125C113.902 232.408 111.786 231.477 110.539 230.888C109.008 230.164 107.792 229.517 106.852 228.859C105.905 228.197 105.579 227.756 105.491 227.601C105.487 227.597 105.427 227.579 105.484 227.221L105.528 226.975C105.636 226.44 105.774 226.166 105.842 226.052C105.912 225.935 105.97 225.883 106.042 225.833C106.24 225.697 106.887 225.394 108.299 225.377C108.318 225.377 108.337 225.379 108.356 225.379C108.39 225.379 108.424 225.376 108.458 225.376L108.855 225.384C111.087 225.471 113.645 226.21 115.468 227.059L115.847 227.242C119.301 228.978 123.508 227.585 125.245 224.131C126.927 220.785 125.672 216.732 122.452 214.903L122.134 214.733C120.285 213.804 117.934 212.9 115.351 212.264C115.259 208.478 112.164 205.438 108.356 205.438Z" fill="black"/>
<path d="M132.15 171.478L133.147 169.744L133.147 169.744L132.15 171.478ZM168.658 269.538L166.668 269.339L166.663 269.386L166.66 269.433L168.658 269.538ZM82.687 298.409L82.6054 300.408L82.6462 300.409H82.687V298.409ZM48.6841 269.538L50.6812 269.43L50.6789 269.388L50.6748 269.345L48.6841 269.538ZM85.4585 171.274L84.4696 169.536L84.4695 169.536L85.4585 171.274ZM93.1909 169.453V167.453H93.1909L93.1909 169.453ZM108.356 205.438L108.356 203.438H108.356V205.438ZM101.356 212.598L102.072 214.465L103.356 213.973V212.598H101.356ZM98.1157 214.293L96.9834 212.644L96.9834 212.644L98.1157 214.293ZM91.731 224.592L89.7631 224.235L89.7613 224.244L89.7596 224.254L91.731 224.592ZM91.6577 225.02L89.6864 224.682L89.6844 224.694L89.6826 224.705L91.6577 225.02ZM93.311 234.503L91.571 235.489L91.571 235.489L93.311 234.503ZM98.8276 240.332L97.6813 241.971L97.6814 241.971L98.8276 240.332ZM104.555 243.545L103.7 245.353H103.7L104.555 243.545ZM109.04 245.634L109.975 243.866L109.957 243.856L109.938 243.847L109.04 245.634ZM109.438 245.845L110.421 244.103L110.398 244.09L110.374 244.077L109.438 245.845ZM111.021 247.108L112.594 245.874L112.594 245.874L111.021 247.108ZM111.335 247.718L113.318 247.453L113.318 247.453L111.335 247.718ZM111.086 248.216L112.377 249.743L112.418 249.709L112.457 249.672L111.086 248.216ZM110.948 248.333L112.152 249.93L112.196 249.896L112.239 249.861L110.948 248.333ZM107.909 249.649L108.233 251.623L108.261 251.618L108.289 251.613L107.909 249.649ZM107.41 249.731L107.68 251.713L107.707 251.709L107.734 251.705L107.41 249.731ZM101.802 248.978L101.005 250.812L101.021 250.819L101.037 250.825L101.802 248.978ZM101.481 248.838L102.278 247.004L102.266 246.998L101.481 248.838ZM101.149 248.696L101.933 246.857L101.91 246.847L101.887 246.837L101.149 248.696ZM92.2046 252.295L90.3856 251.463L90.3856 251.464L92.2046 252.295ZM95.3364 261.413L94.4138 263.188L94.4365 263.199L94.4594 263.211L95.3364 261.413ZM95.6606 261.571L94.7836 263.369L94.8217 263.387L94.8605 263.404L95.6606 261.571ZM96.3989 261.894L95.5988 263.727L95.6145 263.733L95.6303 263.74L96.3989 261.894ZM101.415 263.381L103.398 263.126L103.213 261.684L101.784 261.415L101.415 263.381ZM108.356 269.48V271.48H108.356L108.356 269.48ZM115.356 261.886L114.537 260.061L113.356 260.591V261.886H115.356ZM119.376 259.511L120.581 261.108L120.594 261.098L120.607 261.088L119.376 259.511ZM119.763 259.209L120.994 260.786L121.005 260.777L121.017 260.767L119.763 259.209ZM125.211 245.863L127.194 245.598L127.194 245.598L125.211 245.863ZM115.833 233.387L116.774 231.622L116.764 231.617L116.753 231.611L115.833 233.387ZM115.328 233.125L116.248 231.349L116.237 231.344L116.226 231.338L115.328 233.125ZM110.539 230.888L109.684 232.696L109.684 232.696L110.539 230.888ZM106.852 228.859L105.706 230.498L105.706 230.498L106.852 228.859ZM105.491 227.601L107.231 226.614L107.103 226.389L106.922 226.204L105.491 227.601ZM105.484 227.221L103.515 226.869L103.512 226.888L103.509 226.907L105.484 227.221ZM105.528 226.975L103.567 226.578L103.563 226.601L103.559 226.623L105.528 226.975ZM105.842 226.052L104.128 225.022L104.128 225.022L105.842 226.052ZM106.042 225.833L104.911 224.184L104.91 224.185L106.042 225.833ZM108.299 225.377L108.315 223.377L108.295 223.377L108.275 223.377L108.299 225.377ZM108.356 225.379V227.379H108.356L108.356 225.379ZM108.458 225.376L108.497 223.376L108.463 223.376L108.429 223.376L108.458 225.376ZM108.855 225.384L108.933 223.385L108.914 223.385L108.894 223.384L108.855 225.384ZM115.468 227.059L116.34 225.259L116.326 225.252L116.312 225.245L115.468 227.059ZM115.847 227.242L116.745 225.455L116.732 225.449L116.719 225.442L115.847 227.242ZM125.245 224.131L127.032 225.029L127.032 225.029L125.245 224.131ZM122.452 214.903L123.439 213.164L123.418 213.152L123.396 213.14L122.452 214.903ZM122.134 214.733L123.078 212.97L123.056 212.958L123.032 212.946L122.134 214.733ZM115.351 212.264L113.352 212.312L113.389 213.84L114.873 214.206L115.351 212.264ZM123.835 169.453V171.453C126.482 171.453 129.015 171.983 131.153 173.212L132.15 171.478L133.147 169.744C130.255 168.082 126.99 167.453 123.835 167.453V169.453ZM132.15 171.478L131.153 173.212C146.122 181.816 155.798 198.072 161.339 216.251C166.871 234.402 168.185 254.169 166.668 269.339L168.658 269.538L170.648 269.737C172.213 254.08 170.863 233.778 165.165 215.085C159.476 196.421 149.357 179.061 133.147 169.744L132.15 171.478ZM168.658 269.538L166.66 269.433C166.047 281.093 161.653 287.673 155.859 291.439C149.93 295.293 142.22 296.409 134.654 296.409V298.409V300.409C142.485 300.409 151.136 299.28 158.039 294.793C165.076 290.219 169.985 282.363 170.655 269.643L168.658 269.538ZM134.654 298.409V296.409H82.687V298.409V300.409H134.654V298.409ZM82.687 298.409L82.7686 296.411C67.4939 295.787 59.7333 290.735 55.6613 285.265C51.5167 279.698 50.8912 273.316 50.6812 269.43L48.6841 269.538L46.687 269.646C46.9046 273.673 47.5621 281.085 52.4528 287.654C57.4161 294.321 66.4432 299.748 82.6054 300.408L82.687 298.409ZM48.6841 269.538L50.6748 269.345C45.0249 210.963 70.6209 182.016 86.4474 173.013L85.4585 171.274L84.4695 169.536C67.1468 179.391 40.906 209.928 46.6934 269.731L48.6841 269.538ZM85.4585 171.274L86.4474 173.013C88.4008 171.902 90.7195 171.453 93.191 171.453L93.1909 169.453L93.1909 167.453C90.2673 167.453 87.2055 167.98 84.4696 169.536L85.4585 171.274ZM93.1909 169.453V171.453H123.835V169.453V167.453H93.1909V169.453ZM108.356 205.438V203.438C103.385 203.438 99.356 207.467 99.356 212.438H101.356H103.356C103.356 209.676 105.595 207.438 108.356 207.438V205.438ZM101.356 212.438H99.356V212.598H101.356H103.356V212.438H101.356ZM101.356 212.598L100.64 210.73C99.4028 211.205 98.1695 211.83 96.9834 212.644L98.1157 214.293L99.248 215.942C100.153 215.32 101.103 214.837 102.072 214.465L101.356 212.598ZM98.1157 214.293L96.9834 212.644C93.0886 215.32 90.644 219.381 89.7631 224.235L91.731 224.592L93.6988 224.949C94.4114 221.023 96.3294 217.946 99.2481 215.942L98.1157 214.293ZM91.731 224.592L89.7596 224.254L89.6864 224.682L91.6577 225.02L93.629 225.357L93.7023 224.929L91.731 224.592ZM91.6577 225.02L89.6826 224.705C89.0561 228.641 89.7772 232.324 91.571 235.489L93.311 234.503L95.051 233.517C93.7052 231.142 93.1485 228.377 93.6329 225.334L91.6577 225.02ZM93.311 234.503L91.571 235.489C93.254 238.459 95.6267 240.534 97.6813 241.971L98.8276 240.332L99.9739 238.693C98.1962 237.45 96.3354 235.783 95.051 233.517L93.311 234.503ZM98.8276 240.332L97.6814 241.971C99.7457 243.415 101.938 244.52 103.7 245.353L104.555 243.545L105.41 241.737C103.707 240.931 101.758 239.941 99.9739 238.693L98.8276 240.332ZM104.555 243.545L103.7 245.353C105.841 246.365 106.804 246.748 108.141 247.421L109.04 245.634L109.938 243.847C108.588 243.168 107.302 242.631 105.41 241.737L104.555 243.545ZM109.04 245.634L108.104 247.401L108.502 247.612L109.438 245.845L110.374 244.077L109.975 243.866L109.04 245.634ZM109.438 245.845L108.455 247.586C109.122 247.963 109.384 248.263 109.448 248.343L111.021 247.108L112.594 245.874C112.174 245.339 111.494 244.709 110.421 244.103L109.438 245.845ZM111.021 247.108L109.448 248.343C109.486 248.393 109.47 248.383 109.439 248.311C109.423 248.275 109.406 248.226 109.389 248.166C109.372 248.102 109.361 248.04 109.353 247.983L111.335 247.718L113.318 247.453C113.26 247.022 113.07 246.48 112.594 245.874L111.021 247.108ZM111.335 247.718L109.353 247.983C109.353 247.983 109.351 247.968 109.349 247.948C109.347 247.928 109.344 247.904 109.342 247.876C109.339 247.82 109.337 247.756 109.34 247.687C109.347 247.546 109.371 247.404 109.416 247.267C109.507 246.983 109.652 246.82 109.716 246.759L111.086 248.216L112.457 249.672C112.8 249.349 113.072 248.958 113.22 248.501C113.375 248.024 113.342 247.634 113.318 247.453L111.335 247.718ZM111.086 248.216L109.796 246.688L109.657 246.805L110.948 248.333L112.239 249.861L112.377 249.743L111.086 248.216ZM110.948 248.333L109.744 246.736C109.138 247.193 108.405 247.516 107.528 247.686L107.909 249.649L108.289 251.613C109.702 251.339 111.012 250.789 112.152 249.93L110.948 248.333ZM107.909 249.649L107.584 247.676L107.085 247.758L107.41 249.731L107.734 251.705L108.233 251.623L107.909 249.649ZM107.41 249.731L107.14 247.75C105.603 247.959 103.909 247.685 102.567 247.13L101.802 248.978L101.037 250.825C102.964 251.623 105.371 252.028 107.68 251.713L107.41 249.731ZM101.802 248.978L102.599 247.143L102.278 247.004L101.481 248.838L100.684 250.672L101.005 250.812L101.802 248.978ZM101.481 248.838L102.266 246.998L101.933 246.857L101.149 248.696L100.364 250.536L100.696 250.678L101.481 248.838ZM101.149 248.696L101.887 246.837C97.4603 245.08 92.3874 247.084 90.3856 251.463L92.2046 252.295L94.0236 253.126C95.1355 250.694 97.9543 249.58 100.411 250.555L101.149 248.696ZM92.2046 252.295L90.3856 251.464C88.3841 255.843 90.1879 260.99 94.4138 263.188L95.3364 261.413L96.259 259.639C93.914 258.419 92.9119 255.559 94.0236 253.126L92.2046 252.295ZM95.3364 261.413L94.4594 263.211L94.7836 263.369L95.6606 261.571L96.5377 259.774L96.2135 259.616L95.3364 261.413ZM95.6606 261.571L94.8605 263.404L95.5988 263.727L96.3989 261.894L97.199 260.061L96.4608 259.738L95.6606 261.571ZM96.3989 261.894L95.6303 263.74C97.3114 264.44 99.1362 264.988 101.045 265.346L101.415 263.381L101.784 261.415C100.144 261.107 98.5874 260.638 97.1676 260.047L96.3989 261.894ZM101.415 263.381L99.4308 263.636C99.9992 268.061 103.776 271.48 108.356 271.48V269.48V267.48C105.815 267.48 103.714 265.582 103.398 263.126L101.415 263.381ZM108.356 269.48L108.356 271.48C113.326 271.48 117.356 267.451 117.356 262.48H115.356H113.356C113.356 265.242 111.117 267.48 108.356 267.48L108.356 269.48ZM115.356 262.48H117.356V261.886H115.356H113.356V262.48H115.356ZM115.356 261.886L116.175 263.711C117.685 263.033 119.167 262.174 120.581 261.108L119.376 259.511L118.172 257.914C117.008 258.792 115.786 259.501 114.537 260.061L115.356 261.886ZM119.376 259.511L120.607 261.088L120.994 260.786L119.763 259.209L118.533 257.632L118.146 257.934L119.376 259.511ZM119.763 259.209L121.017 260.767C125.466 257.187 127.991 251.563 127.194 245.598L125.211 245.863L123.229 246.128C123.828 250.61 121.945 254.886 118.509 257.651L119.763 259.209ZM125.211 245.863L127.194 245.598C126.382 239.526 122.382 234.616 116.774 231.622L115.833 233.387L114.891 235.151C119.611 237.671 122.622 241.588 123.229 246.128L125.211 245.863ZM115.833 233.387L116.753 231.611L116.248 231.349L115.328 233.125L114.407 234.901L114.912 235.162L115.833 233.387ZM115.328 233.125L116.226 231.338C114.784 230.613 112.543 229.623 111.393 229.08L110.539 230.888L109.684 232.696C111.028 233.332 113.019 234.203 114.429 234.912L115.328 233.125ZM110.539 230.888L111.393 229.08C109.891 228.369 108.797 227.779 107.998 227.22L106.852 228.859L105.706 230.498C106.787 231.254 108.126 231.959 109.684 232.696L110.539 230.888ZM106.852 228.859L107.998 227.22C107.605 226.945 107.382 226.745 107.268 226.631C107.149 226.51 107.166 226.5 107.231 226.614L105.491 227.601L103.751 228.587C104.039 229.095 104.621 229.74 105.706 230.498L106.852 228.859ZM105.491 227.601L106.922 226.204C106.779 226.057 106.641 225.965 106.635 225.96C106.614 225.946 106.578 225.922 106.603 225.939C106.626 225.954 106.684 225.993 106.754 226.05C106.899 226.169 107.029 226.31 107.137 226.47C107.342 226.773 107.411 227.058 107.437 227.211C107.483 227.486 107.441 227.65 107.459 227.535L105.484 227.221L103.509 226.907C103.47 227.15 103.429 227.502 103.493 227.877C103.527 228.079 103.608 228.391 103.823 228.71C103.937 228.878 104.072 229.024 104.221 229.146C104.292 229.204 104.351 229.244 104.376 229.261C104.402 229.278 104.366 229.254 104.345 229.24C104.34 229.236 104.202 229.144 104.059 228.997L105.491 227.601ZM105.484 227.221L107.453 227.572L107.497 227.326L105.528 226.975L103.559 226.623L103.515 226.869L105.484 227.221ZM105.528 226.975L107.488 227.371C107.556 227.036 107.618 226.98 107.557 227.081L105.842 226.052L104.128 225.022C103.93 225.351 103.716 225.844 103.567 226.578L105.528 226.975ZM105.842 226.052L107.557 227.082C107.533 227.121 107.48 227.202 107.391 227.296C107.298 227.393 107.212 227.456 107.175 227.481L106.042 225.833L104.91 224.185C104.615 224.387 104.353 224.647 104.128 225.022L105.842 226.052ZM106.042 225.833L107.174 227.482C107.04 227.574 107.025 227.547 107.222 227.495C107.405 227.447 107.755 227.384 108.323 227.377L108.299 225.377L108.275 223.377C106.621 223.397 105.542 223.751 104.911 224.184L106.042 225.833ZM108.299 225.377L108.284 227.377C108.26 227.377 108.241 227.376 108.233 227.376C108.226 227.375 108.22 227.375 108.228 227.376C108.233 227.376 108.25 227.377 108.269 227.377C108.29 227.378 108.32 227.379 108.356 227.379V225.379V223.379C108.383 223.379 108.403 223.38 108.414 223.38C108.42 223.38 108.424 223.38 108.426 223.38C108.428 223.381 108.429 223.381 108.427 223.38C108.426 223.38 108.421 223.38 108.416 223.38C108.411 223.38 108.403 223.379 108.394 223.379C108.376 223.378 108.348 223.377 108.315 223.377L108.299 225.377ZM108.356 225.379L108.356 227.379C108.417 227.379 108.469 227.377 108.486 227.376C108.494 227.376 108.493 227.376 108.498 227.376C108.5 227.376 108.501 227.375 108.501 227.375C108.502 227.375 108.502 227.375 108.502 227.375C108.502 227.375 108.502 227.375 108.502 227.375C108.502 227.375 108.502 227.375 108.502 227.375C108.502 227.375 108.502 227.375 108.502 227.375C108.502 227.375 108.502 227.375 108.502 227.375C108.502 227.375 108.502 227.375 108.501 227.375C108.501 227.375 108.5 227.375 108.498 227.376C108.496 227.376 108.491 227.376 108.486 227.376L108.458 225.376L108.429 223.376C108.402 223.377 108.378 223.377 108.362 223.378C108.347 223.378 108.331 223.379 108.327 223.379C108.32 223.379 108.322 223.379 108.325 223.379C108.33 223.379 108.341 223.379 108.356 223.379L108.356 225.379ZM108.458 225.376L108.418 227.376L108.816 227.383L108.855 225.384L108.894 223.384L108.497 223.376L108.458 225.376ZM108.855 225.384L108.777 227.382C110.692 227.457 112.989 228.111 114.625 228.872L115.468 227.059L116.312 225.245C114.3 224.309 111.482 223.485 108.933 223.385L108.855 225.384ZM115.468 227.059L114.596 228.858L114.975 229.042L115.847 227.242L116.719 225.442L116.34 225.259L115.468 227.059ZM115.847 227.242L114.949 229.029C119.39 231.261 124.799 229.47 127.032 225.029L125.245 224.131L123.458 223.233C122.217 225.7 119.212 226.695 116.745 225.455L115.847 227.242ZM125.245 224.131L127.032 225.029C129.194 220.726 127.581 215.516 123.439 213.164L122.452 214.903L121.464 216.643C123.763 217.948 124.659 220.843 123.458 223.233L125.245 224.131ZM122.452 214.903L123.396 213.14L123.078 212.97L122.134 214.733L121.19 216.497L121.508 216.667L122.452 214.903ZM122.134 214.733L123.032 212.946C121.05 211.95 118.558 210.994 115.829 210.322L115.351 212.264L114.873 214.206C117.31 214.806 119.52 215.658 121.236 216.52L122.134 214.733ZM115.351 212.264L117.35 212.215C117.232 207.348 113.253 203.438 108.356 203.438L108.356 205.438L108.356 207.438C111.074 207.438 113.286 209.608 113.352 212.312L115.351 212.264Z" fill="black"/>
<rect x="84.0454" y="154.125" width="47.3256" height="12.6808" rx="6.34042" stroke="#9333EA" stroke-width="4"/>
<rect x="165.184" y="67.4375" width="76.9885" height="15.3977" rx="7.69885" fill="#9333EA"/>
<path d="M89.1023 147.639L74.9878 121.977" stroke="#9333EA" stroke-width="4" stroke-linecap="round"/>
<path d="M127.597 147.633L141.07 121.328" stroke="#9333EA" stroke-width="4" stroke-linecap="round"/>
<path d="M74.3462 121.333C78.6233 122.188 88.0758 122.488 91.6686 116.842C95.2614 111.196 100.009 112.779 101.934 114.276L107.708 119.408" stroke="#9333EA" stroke-width="4" stroke-linecap="round"/>
<path d="M141.07 120.817C136.792 121.673 127.34 121.972 123.747 116.326C120.154 110.68 115.407 112.263 113.482 113.76L107.708 119.409" stroke="#9333EA" stroke-width="4" stroke-linecap="round"/>
<path d="M169.94 63.5906L146.202 18.0391" stroke="black" stroke-width="4" stroke-linecap="round"/>
<path d="M238.589 63.5915L261.686 17.3984" stroke="black" stroke-width="4" stroke-linecap="round"/>
<path d="M146.202 17.8614C153.605 19.3346 169.965 19.8503 176.183 10.1267C182.402 0.403179 190.619 3.12872 193.95 5.70693L203.944 14.5465" stroke="black" stroke-width="4" stroke-linecap="round"/>
<path d="M261.686 16.5801C254.283 18.0534 237.923 18.569 231.705 8.84548C225.486 -0.878071 217.269 1.84747 213.938 4.42568L203.944 14.1544" stroke="black" stroke-width="4" stroke-linecap="round"/>
<rect x="3.65333" y="289.79" width="63.1013" height="17.5573" rx="8.77863" transform="rotate(-61.5197 3.65333 289.79)" stroke="#A0A0A0" stroke-width="4"/>
<rect x="266.252" y="238.812" width="63.1013" height="17.5573" rx="8.77863" stroke="#A0A0A0" stroke-width="4"/>
<rect x="275.234" y="260.625" width="63.1013" height="17.5573" rx="8.77863" stroke="#C084FC" stroke-width="4"/>
<rect x="266.252" y="282.445" width="63.1013" height="17.5573" rx="8.77863" stroke="#A0A0A0" stroke-width="4"/>
<rect x="331.692" y="282.445" width="63.1013" height="17.5573" rx="8.77863" stroke="#A0A0A0" stroke-width="4"/>
<rect x="341.957" y="263.195" width="63.1013" height="17.5573" rx="8.77863" stroke="#A0A0A0" stroke-width="4"/>
<rect x="332.975" y="242.664" width="63.1013" height="17.5573" rx="8.77863" stroke="#C084FC" stroke-width="4"/>
<rect x="321.427" y="220.852" width="63.1013" height="17.5573" rx="8.77863" stroke="#C084FC" stroke-width="4"/>
<rect x="327.843" y="199.039" width="63.1013" height="17.5573" rx="8.77863" stroke="#A0A0A0" stroke-width="4"/>
<path d="M147.861 111.065C155.56 101.014 162.242 92.4597 175.715 87.9688H233.456C258.263 101.014 298.63 140.578 296.064 224.623" stroke="black" stroke-width="4" stroke-linecap="round"/>
<path d="M167.75 294.555H256.929" stroke="black" stroke-width="4" stroke-linecap="round"/>
<path d="M204.585 223.609V232.322" stroke="black" stroke-width="4" stroke-linecap="round"/>
<path d="M204.585 166.17V157.258" stroke="black" stroke-width="4" stroke-linecap="round"/>
<path d="M220.624 170.091C216.551 168.054 210.367 166.15 204.585 166.172C197.617 166.199 191.232 169.024 189.829 177.789C187.979 189.35 202.004 193.501 210.359 197.678C221.908 203.453 221.803 214.277 214.85 219.492C211.723 221.837 208.172 223.124 204.585 223.61C199.341 224.321 194.019 223.321 189.829 221.416" stroke="black" stroke-width="4" stroke-linecap="round"/>
</svg>
