<svg width="250" height="250" viewBox="0 0 250 250" fill="none" xmlns="http://www.w3.org/2000/svg">
<path d="M125.086 12C133.074 12 140.934 14.0117 147.94 17.8496L148.594 18.2148C154.518 21.5819 159.642 26.1785 163.629 31.6865C170.619 30.5339 177.79 30.9552 184.616 32.9346C192.325 35.1698 199.343 39.3191 205.018 44.9961L205.545 45.5322C210.95 51.1125 214.91 57.9345 217.074 65.4043L217.277 66.1279C219.08 72.7389 219.431 79.6535 218.319 86.3994C224.028 90.5339 228.758 95.8919 232.153 102.096L232.508 102.755C236.113 109.596 238 117.216 238 124.957C238 132.698 236.113 140.318 232.508 147.159L232.153 147.819C228.758 154.023 224.027 159.381 218.318 163.516C219.465 170.496 219.045 177.657 217.071 184.475C214.912 191.933 210.963 198.746 205.573 204.322L205.047 204.857C199.564 210.354 192.824 214.422 185.415 216.713L184.696 216.93C177.886 218.918 170.729 219.354 163.748 218.222C159.764 223.754 154.634 228.374 148.698 231.758L148.043 232.124C141.025 235.979 133.147 238 125.14 238C117.383 238 109.748 236.103 102.897 232.479L102.237 232.124C96.0248 228.712 90.6641 223.959 86.5342 218.226C79.8046 219.33 72.908 218.979 66.3135 217.181L65.5908 216.978C57.8948 214.748 50.8861 210.61 45.2148 204.948C39.5436 199.287 35.3932 192.284 33.1484 184.59C31.1613 177.779 30.7241 170.622 31.8545 163.641C26.3023 159.657 21.6656 154.52 18.2686 148.572L17.9004 147.916C14.0298 140.883 12 132.985 12 124.957C12 116.929 14.0298 109.031 17.9004 101.998L18.2686 101.342C21.6658 95.3937 26.303 90.2567 31.8555 86.2734C30.7251 79.2925 31.1613 72.135 33.1484 65.3242C35.3933 57.6305 39.5436 50.6284 45.2148 44.9668L45.75 44.4404C51.3244 39.0483 58.1351 35.0976 65.5908 32.9375L66.3135 32.7344C72.9099 30.9356 79.8086 30.5826 86.54 31.6885C90.6728 25.9778 96.0297 21.2467 102.231 17.8496L102.891 17.4951C109.729 13.888 117.347 12 125.086 12Z" fill="#06751C" stroke="#D4D4D8" stroke-width="8" stroke-linecap="round" stroke-linejoin="round"/>
<mask id="mask0_8879_32298" style="mask-type:alpha" maskUnits="userSpaceOnUse" x="16" y="16" width="218" height="218">
<path d="M36.278 88.1121C34.6875 80.945 34.9317 73.4922 36.988 66.4447C39.0442 59.3972 42.8459 52.9832 48.0405 47.7974C53.2352 42.6115 59.6546 38.8218 66.7037 36.7795C73.7527 34.7372 81.203 34.5085 88.3639 36.1146C92.3054 29.9479 97.7351 24.8731 104.153 21.3578C110.57 17.8426 117.769 16 125.086 16C132.402 16 139.601 17.8426 146.019 21.3578C152.436 24.8731 157.866 29.9479 161.807 36.1146C168.979 34.5015 176.442 34.7292 183.503 36.7764C190.563 38.8237 196.991 42.624 202.189 47.8239C207.386 53.0238 211.185 59.4543 213.232 66.5173C215.278 73.5804 215.506 81.0464 213.893 88.2211C220.058 92.1641 225.13 97.5959 228.644 104.016C232.158 110.436 234 117.638 234 124.957C234 132.277 232.158 139.478 228.644 145.899C225.13 152.319 220.058 157.75 213.893 161.693C215.499 168.857 215.27 176.31 213.229 183.362C211.187 190.414 207.399 196.836 202.215 202.033C197.031 207.229 190.62 211.033 183.575 213.09C176.53 215.147 169.081 215.391 161.916 213.8C157.98 219.99 152.546 225.087 146.118 228.618C139.689 232.149 132.474 234 125.14 234C117.806 234 110.591 232.149 104.163 228.618C97.7342 225.087 92.3002 219.99 88.3639 213.8C81.203 215.406 73.7527 215.177 66.7037 213.135C59.6546 211.093 53.2352 207.303 48.0405 202.117C42.8459 196.931 39.0442 190.517 36.988 183.47C34.9317 176.422 34.6875 168.97 36.278 161.802C30.0664 157.87 24.95 152.43 21.4046 145.988C17.8592 139.546 16 132.311 16 124.957C16 117.603 17.8592 110.369 21.4046 103.927C24.95 97.485 30.0664 92.0447 36.278 88.1121Z" fill="#06751C"/>
</mask>
<g mask="url(#mask0_8879_32298)">
<path d="M60.4717 116.28L103.781 159.008L190.4 73.5518" stroke="#D4D4D8" stroke-width="16" stroke-linecap="round" stroke-linejoin="round"/>
<path d="M247.905 216.417C249.52 217.747 250.681 218.132 251.478 218.158C252.271 218.188 252.68 217.863 252.68 217.863L253.174 217.505C253.174 217.505 253.629 217.227 253.725 216.444C253.816 215.666 253.556 214.358 252.001 212.421C251.806 212.18 251.311 211.634 250.518 210.84C249.723 210.048 248.633 209.007 247.189 207.805C246.465 207.204 245.649 206.565 244.718 205.912C243.789 205.258 242.738 204.589 241.533 203.963C240.326 203.346 238.948 202.755 237.397 202.427C235.859 202.092 234.147 202.076 232.683 202.567C231.208 203.046 230.068 203.975 229.226 205.036C228.814 205.572 228.451 206.141 228.154 206.735C228.003 207.033 227.869 207.33 227.737 207.643C227.613 207.962 227.482 208.283 227.384 208.614C226.954 209.93 226.718 211.322 226.595 212.735C226.469 214.15 226.461 215.589 226.516 217.037C226.626 219.934 226.994 222.865 227.4 225.777C227.809 228.686 228.273 231.583 228.618 234.371C228.96 237.152 229.197 239.853 229.066 242.183C229.035 242.766 228.979 243.321 228.893 243.84C228.816 244.366 228.698 244.845 228.56 245.287C228.281 246.17 227.89 246.865 227.389 247.349C227.271 247.48 227.128 247.576 226.999 247.689C226.85 247.777 226.719 247.884 226.557 247.955C226.411 248.044 226.236 248.099 226.075 248.171C225.99 248.202 225.897 248.224 225.81 248.252C225.724 248.282 225.634 248.308 225.536 248.324C224.786 248.491 223.91 248.527 222.954 248.425C222.704 248.391 222.488 248.375 222.218 248.331C221.938 248.282 221.66 248.233 221.385 248.184C220.834 248.089 220.292 247.994 219.759 247.902C219.229 247.791 218.714 247.656 218.206 247.539C217.952 247.48 217.701 247.42 217.452 247.362C217.201 247.31 216.965 247.218 216.725 247.15C216.248 247.004 215.781 246.862 215.324 246.723C214.877 246.563 214.451 246.389 214.03 246.232C213.822 246.15 213.608 246.082 213.413 245.991C213.218 245.899 213.026 245.809 212.838 245.72C212.648 245.632 212.462 245.546 212.278 245.461C212.187 245.417 212.092 245.38 212.006 245.333C211.922 245.285 211.838 245.237 211.756 245.19C210.376 244.481 209.387 243.704 208.709 243.075C208.031 242.441 207.672 241.937 207.489 241.651C207.452 241.583 207.41 241.52 207.382 241.474C207.366 241.437 207.35 241.407 207.336 241.383C207.326 241.367 207.323 241.362 207.327 241.367L207.328 241.368C207.256 241.377 207.191 241.384 207.134 241.392C206.859 241.421 206.715 241.428 206.715 241.428L205.624 241.527L202.689 241.793L200.986 241.948C200.986 241.948 201.005 241.993 201.041 242.083C201.06 242.128 201.083 242.183 201.111 242.25C201.14 242.321 201.172 242.392 201.206 242.461C201.279 242.609 201.368 242.791 201.475 243.008C201.584 243.211 201.714 243.435 201.864 243.693C202.465 244.693 203.457 246.035 204.88 247.389C206.294 248.741 208.124 250.112 210.175 251.199C210.304 251.272 210.434 251.345 210.565 251.419C210.696 251.49 210.825 251.546 210.956 251.611C211.218 251.737 211.485 251.865 211.755 251.994C212.025 252.122 212.3 252.252 212.578 252.384C212.856 252.513 213.129 252.608 213.41 252.723C213.97 252.941 214.549 253.178 215.134 253.39C215.71 253.573 216.3 253.76 216.902 253.951C217.202 254.039 217.513 254.156 217.811 254.223C218.111 254.298 218.415 254.373 218.721 254.449C219.332 254.597 219.961 254.764 220.59 254.9C221.21 255.015 221.84 255.132 222.481 255.25C222.801 255.309 223.124 255.368 223.449 255.427C223.783 255.484 224.166 255.526 224.526 255.573C225.991 255.739 227.546 255.736 229.072 255.412C229.263 255.377 229.452 255.329 229.639 255.272C229.826 255.216 230.015 255.166 230.2 255.102C230.564 254.963 230.933 254.828 231.277 254.642C231.632 254.476 231.955 254.257 232.283 254.045C232.59 253.809 232.904 253.575 233.176 253.299C234.305 252.228 235.054 250.834 235.527 249.388C235.762 248.663 235.944 247.92 236.065 247.17C236.194 246.42 236.275 245.664 236.322 244.907C236.421 243.392 236.391 241.875 236.304 240.367C236.219 238.857 236.066 237.358 235.892 235.87C235.54 232.895 235.085 229.971 234.702 227.153C234.32 224.34 233.997 221.625 233.91 219.156C233.865 217.922 233.877 216.749 233.974 215.678C234.067 214.604 234.242 213.63 234.512 212.804C234.573 212.59 234.655 212.403 234.727 212.207C234.808 212.018 234.895 211.819 234.985 211.642C235.164 211.279 235.366 210.974 235.568 210.702C235.985 210.177 236.423 209.86 236.845 209.721C237.268 209.582 237.702 209.571 238.252 209.677C238.796 209.781 239.445 210.034 240.103 210.362C241.435 211.034 242.767 211.993 243.869 212.871C244.98 213.758 245.892 214.579 246.571 215.2C247.252 215.824 247.703 216.252 247.905 216.417Z" fill="#202020"/>
<path d="M137.314 185.097C135.785 179.274 137.762 175.185 141.047 170.14C144.81 164.363 148.849 161.778 155.516 160.026C164.369 157.7 169.649 157.214 176.97 159.348C182.559 160.977 184.967 164.035 188.812 168.408C191.066 170.972 194.344 184.296 198.319 194.312C202.191 204.071 203.198 210.205 208.868 219.041C222.978 241.03 228.468 267.088 226.182 270.394C222.752 275.353 175.491 292.732 167.396 287.646C153.702 279.042 152.996 268.463 149.641 252.638C146.306 236.908 143.026 211.999 143.026 211.999C143.026 211.999 138.31 188.893 137.314 185.097Z" fill="#202020"/>
<path d="M151.765 163.482L136.708 153.659C133.608 151.036 129.11 154.321 130.622 158.106L138.689 189.2L151.765 163.482Z" fill="#202020"/>
<path d="M168.748 158.503L177.858 143.002C179.467 139.272 184.957 140.211 185.288 144.273L191.902 175.709L168.748 158.503Z" fill="#202020"/>
<ellipse cx="6.10228" cy="6.10437" rx="6.10228" ry="6.10437" transform="matrix(0.967162 -0.254161 0.253974 0.967211 144.863 174.955)" fill="#A6BE90"/>
<ellipse cx="4.35875" cy="4.35991" rx="4.35875" ry="4.35991" transform="matrix(0.967162 -0.254161 0.253974 0.967211 146.992 176.198)" fill="#202020"/>
<ellipse cx="6.10228" cy="6.10437" rx="6.10228" ry="6.10437" transform="matrix(0.967162 -0.254161 0.253974 0.967211 165.098 169.637)" fill="#A6BE90"/>
<ellipse cx="4.35875" cy="4.35991" rx="4.35875" ry="4.35991" transform="matrix(0.967162 -0.254161 0.253974 0.967211 167.228 170.881)" fill="#202020"/>
<path d="M160.786 187.733C161.225 187.618 161.674 187.879 161.789 188.317C161.98 189.045 162.73 189.482 163.461 189.29C164.192 189.098 164.631 188.349 164.44 187.62C164.438 187.613 164.438 187.606 164.436 187.598C164.434 187.591 164.43 187.585 164.428 187.578L164.045 186.117C163.272 185.979 162.616 185.439 162.5 184.999C162.343 184.403 163.097 183.689 164.182 183.403C165.268 183.118 166.275 183.37 166.431 183.966C166.547 184.406 166.241 185.199 165.635 185.699L166.019 187.16C166.021 187.167 166.02 187.174 166.022 187.182C166.024 187.189 166.028 187.195 166.03 187.202C166.221 187.931 166.971 188.368 167.702 188.176C168.433 187.983 168.871 187.235 168.68 186.506C168.565 186.068 168.828 185.62 169.267 185.504C169.706 185.389 170.155 185.65 170.27 186.088C170.691 187.691 169.726 189.339 168.118 189.761C167.283 189.981 166.437 189.824 165.757 189.4C165.373 190.104 164.713 190.656 163.878 190.876C162.27 191.298 160.62 190.338 160.199 188.735C160.084 188.297 160.347 187.848 160.786 187.733Z" fill="#6D6D6D"/>
<path d="M151.448 202.44C151.448 202.44 136.994 208.446 129.53 200.988C122.067 193.53 119.892 192.533 117.799 193.28C114.23 194.553 111.615 196.905 113.46 201.962C114.524 204.876 122.717 221.065 147.805 213.898C147.805 213.898 156.551 207.295 151.448 202.44Z" fill="#202020"/>
<ellipse cx="1.308" cy="0.436" rx="1.308" ry="0.436" transform="matrix(0.848616 -0.529119 0.528758 0.848704 114.371 194.853)" fill="#202020"/>
<ellipse cx="1.16783" cy="0.436" rx="1.16783" ry="0.436" transform="matrix(0.95908 -0.282998 0.282815 0.959215 116.603 193.477)" fill="#202020"/>
<ellipse cx="18.7427" cy="32.702" rx="18.7427" ry="32.702" transform="matrix(0.967162 -0.254161 0.253974 0.967211 151.424 207.086)" fill="#252525"/>
</g>
<path d="M209.278 196.142C206.028 193.206 200.996 190.265 196.844 188.87C192.886 187.54 189.434 187.694 185.587 189.319C184.75 189.672 183.875 190.257 183.742 191.157C183.585 192.206 184.358 193.306 185.324 193.746C189.586 195.688 195.339 200.567 198.963 207.108C199.801 208.62 199.239 210.122 201.196 211.661C202.851 212.963 205.146 213.375 207.243 213.563C210.206 213.827 212.531 213.736 214.602 211.601C218.312 207.776 212.225 198.805 209.278 196.142Z" fill="#202020"/>
<path d="M205.085 202.228C202.449 202.57 199.523 203.689 198.649 206.201C198.189 207.523 198.413 209.02 199.057 210.262C199.271 210.675 199.542 211.076 199.845 211.465C202.609 214.198 207.317 215.871 210.668 214.324C212.98 213.257 215.492 211.657 215.782 208.906C215.949 207.317 215.38 205.69 214.408 204.398C214.207 204.211 213.997 204.036 213.777 203.877C211.327 202.11 208.081 201.84 205.085 202.228Z" fill="#303030"/>
</svg>
