<svg width="417" height="352" viewBox="0 0 417 352" fill="none" xmlns="http://www.w3.org/2000/svg">
<path d="M94.7855 220.067L77.7202 153.273L299.756 96.5447L303.011 109.285" stroke="black" stroke-width="2.79999"/>
<path d="M102.88 251.752L115.873 302.604L120.667 301.379" stroke="black" stroke-width="2.79999"/>
<path d="M198.242 292.964L207.622 290.682" stroke="black" stroke-width="2.79999" stroke-linecap="round"/>
<path d="M222.578 287.132L300.024 268.476" stroke="black" stroke-width="2.79999" stroke-linecap="round"/>
<path d="M192.664 294.229L122.786 310.647L106.979 244.289" stroke="black" stroke-width="2.79999" stroke-linecap="round"/>
<path d="M101.393 220.968L87.022 160.724L309.935 107.548L331.235 196.838" stroke="black" stroke-width="2.79999" stroke-linecap="round"/>
<path d="M32.4705 133.401C30.247 133.878 28.1247 134.577 26.1179 135.454L27.1953 140.477C24.5206 141.763 22.1208 143.42 20.0278 145.41L15.7146 142.621C14.1528 144.218 12.7926 145.99 11.5842 147.858C10.3757 149.727 9.31716 151.694 8.50128 153.774L12.8145 156.563C11.8576 159.288 11.3302 162.157 11.2543 165.124L6.23152 166.201C6.25519 168.391 6.48801 170.613 6.96496 172.837C7.44192 175.06 8.141 177.183 9.01751 179.189L14.0403 178.112C15.3263 180.787 16.9838 183.186 18.9742 185.279L16.1845 189.593C17.7814 191.154 19.5537 192.515 21.4222 193.723C23.2907 194.932 25.2581 195.99 27.3373 196.806L30.127 192.493C32.8522 193.45 35.7206 193.977 38.6875 194.053L39.7648 199.076C41.9546 199.052 44.1768 198.819 46.4004 198.342C48.6239 197.865 50.7462 197.166 52.753 196.29L51.6756 191.267C54.3503 189.981 56.7501 188.323 58.8431 186.333L63.1564 189.123C64.7181 187.526 66.0782 185.754 67.2867 183.885C68.4952 182.017 69.5538 180.049 70.3696 177.97L66.0564 175.18C67.0133 172.455 67.5407 169.587 67.6166 166.62L72.6394 165.542C72.6157 163.353 72.3829 161.13 71.906 158.907C71.429 156.683 70.7299 154.561 69.8534 152.554L64.8306 153.632C63.5446 150.957 61.8871 148.557 59.8967 146.464L62.6864 142.151C61.0895 140.589 59.3172 139.229 57.4487 138.02C55.5802 136.812 53.6128 135.753 51.5336 134.938L48.7439 139.251C46.0187 138.294 43.1503 137.767 40.1835 137.691L39.1061 132.668C36.9163 132.691 34.694 132.924 32.4705 133.401ZM35.953 149.636C44.9148 147.714 53.7484 153.427 55.6707 162.389C57.593 171.351 51.8798 180.185 42.9179 182.107C33.9561 184.029 25.1225 178.316 23.2002 169.354C21.2779 160.392 26.9911 151.559 35.953 149.636Z" fill="#A855F7"/>
<path d="M161.778 175.97C159.566 176.498 157.461 177.245 155.474 178.167L156.666 183.164C154.022 184.511 151.66 186.223 149.614 188.261L145.238 185.57C143.713 187.203 142.393 189.006 141.228 190.901C140.063 192.797 139.049 194.788 138.281 196.885L142.657 199.576C141.763 202.322 141.301 205.202 141.293 208.169L136.296 209.361C136.37 211.55 136.654 213.766 137.181 215.978C137.709 218.191 138.456 220.296 139.379 222.283L144.375 221.091C145.722 223.735 147.434 226.096 149.472 228.143L146.782 232.519C148.414 234.044 150.217 235.363 152.112 236.529C154.008 237.694 155.999 238.707 158.097 239.476L160.787 235.1C163.533 235.994 166.413 236.456 169.381 236.464L170.573 241.461C172.761 241.387 174.978 241.103 177.19 240.576C179.402 240.048 181.508 239.3 183.494 238.378L182.302 233.381C184.946 232.035 187.308 230.323 189.355 228.285L193.73 230.975C195.255 229.343 196.575 227.54 197.74 225.644C198.905 223.749 199.919 221.758 200.687 219.66L196.311 216.97C197.205 214.224 197.667 211.344 197.675 208.376L202.672 207.184C202.598 204.995 202.314 202.779 201.787 200.567C201.259 198.355 200.512 196.249 199.589 194.263L194.593 195.455C193.246 192.81 191.534 190.449 189.496 188.402L192.186 184.026C190.554 182.502 188.751 181.182 186.856 180.017C184.96 178.851 182.969 177.838 180.872 177.07L178.181 181.446C175.435 180.552 172.555 180.09 169.587 180.082L168.395 175.085C166.207 175.159 163.99 175.442 161.778 175.97V175.97ZM165.631 192.121C174.547 189.995 183.509 195.504 185.635 204.42C187.762 213.335 182.252 222.297 173.337 224.424C164.421 226.551 155.459 221.041 153.333 212.126C151.206 203.21 156.716 194.248 165.631 192.121Z" stroke="black" stroke-width="2.79999" stroke-linecap="round" stroke-linejoin="round"/>
<path d="M179.53 249.811C178.466 250.065 177.454 250.424 176.498 250.868L177.072 253.271C175.8 253.918 174.664 254.742 173.68 255.722L171.575 254.428C170.842 255.213 170.208 256.08 169.647 256.991C169.087 257.903 168.599 258.861 168.23 259.869L170.334 261.163C169.904 262.484 169.682 263.869 169.678 265.296L167.275 265.869C167.311 266.922 167.447 267.988 167.701 269.051C167.955 270.115 168.314 271.128 168.758 272.083L171.161 271.51C171.808 272.782 172.632 273.917 173.612 274.902L172.318 277.006C173.103 277.739 173.97 278.374 174.882 278.934C175.793 279.495 176.751 279.982 177.759 280.352L179.053 278.247C180.374 278.677 181.759 278.899 183.186 278.903L183.759 281.306C184.812 281.271 185.878 281.134 186.942 280.881C188.005 280.627 189.018 280.267 189.973 279.824L189.4 277.421C190.672 276.773 191.807 275.95 192.792 274.97L194.896 276.264C195.63 275.479 196.264 274.612 196.825 273.7C197.385 272.788 197.872 271.831 198.242 270.822L196.137 269.528C196.567 268.208 196.789 266.823 196.793 265.395L199.196 264.822C199.161 263.77 199.024 262.704 198.771 261.64C198.517 260.576 198.157 259.563 197.714 258.608L195.311 259.181C194.663 257.91 193.84 256.774 192.86 255.79L194.154 253.685C193.369 252.952 192.502 252.317 191.59 251.757C190.678 251.196 189.721 250.709 188.712 250.34L187.418 252.444C186.098 252.014 184.713 251.792 183.286 251.788L182.712 249.385C181.66 249.421 180.594 249.557 179.53 249.811V249.811ZM181.383 257.578C185.671 256.555 189.98 259.205 191.003 263.493C192.026 267.78 189.376 272.09 185.089 273.113C180.801 274.136 176.491 271.486 175.468 267.199C174.446 262.911 177.095 258.601 181.383 257.578Z" stroke="black" stroke-opacity="0.7" stroke-width="2.79999" stroke-linecap="round" stroke-linejoin="round"/>
<path d="M301.914 243.048L312.964 217.363C323.251 193.454 352.357 184.238 374.53 197.87C396.741 211.526 401.627 241.73 384.854 261.692L366.866 283.099C354.573 297.73 333.42 301.151 317.142 291.143C300.83 281.115 294.346 260.637 301.914 243.048Z" stroke="#A855F7" stroke-width="2.79999"/>
<path d="M308.691 229.822L313.095 218.832C322.769 194.693 351.851 185.081 374.005 198.702C396.204 212.349 400.719 242.721 383.451 262.237L375.606 271.103C362.761 285.62 341.342 288.805 324.829 278.653C308.277 268.477 301.463 247.857 308.691 229.822Z" fill="#A855F7"/>
<circle cx="169.458" cy="208.035" r="6.96565" transform="rotate(-13.417 169.458 208.035)" stroke="black" stroke-width="2.79999"/>
<circle cx="169.458" cy="208.036" r="10.5147" transform="rotate(-13.417 169.458 208.036)" stroke="black" stroke-width="2.79999"/>
<path d="M157.528 156.933L188.351 286.144" stroke="black" stroke-width="2.79999" stroke-linecap="round" stroke-dasharray="16.8 16.8"/>
<path d="M213.043 140.562L234.925 232.292" stroke="black" stroke-width="2.79999" stroke-linecap="round" stroke-dasharray="16.8 16.8"/>
<path d="M246.66 135.03L271.6 239.583" stroke="black" stroke-width="2.79999" stroke-linecap="round" stroke-dasharray="16.8 16.8"/>
<path d="M283.174 137.389L303.056 220.735" stroke="black" stroke-width="2.79999" stroke-linecap="round" stroke-dasharray="16.8 16.8"/>
<path d="M151.964 273.453L212.624 258.983" stroke="black" stroke-width="2.79999" stroke-linecap="round" stroke-dasharray="16.8 16.8"/>
<path d="M120.445 219.988L306.864 175.519" stroke="black" stroke-width="2.79999" stroke-linecap="round" stroke-dasharray="16.8 16.8"/>
<path d="M153.494 279.865L159.905 278.336" stroke="black" stroke-width="2.79999" stroke-linecap="round"/>
<path d="M222.605 257.125L265.018 247.008" stroke="black" stroke-width="2.79999" stroke-linecap="round"/>
<path d="M224.017 263.042L262.978 253.748" stroke="black" stroke-width="2.79999" stroke-linecap="round"/>
<path d="M224.841 266.494L246.047 261.435" stroke="black" stroke-width="2.79999" stroke-linecap="round"/>
<path d="M154.317 283.317L167.633 280.141" stroke="black" stroke-width="2.79999" stroke-linecap="round"/>
<path d="M230.289 177.679L237.424 166.073" stroke="black" stroke-opacity="0.6" stroke-width="2.79999" stroke-linecap="round"/>
<path d="M226.572 197.279L253.235 153.911" stroke="black" stroke-opacity="0.6" stroke-width="2.79999" stroke-linecap="round"/>
<path d="M233.058 200.282L241.718 186.189M258.703 158.81L249.822 173.014" stroke="black" stroke-opacity="0.6" stroke-width="2.79999" stroke-linecap="round"/>
<path d="M237.915 205.935L244.565 195.118M266.455 159.513L259.961 170.074" stroke="black" stroke-opacity="0.6" stroke-width="2.79999" stroke-linecap="round"/>
<path d="M240.645 215.047L249.617 200.454M275.181 158.557L266.815 172.5" stroke="black" stroke-opacity="0.6" stroke-width="2.79999" stroke-linecap="round"/>
<path d="M249.32 214.49L256.02 203.593M278.73 166.924L272.392 176.81" stroke="black" stroke-opacity="0.6" stroke-width="2.79999" stroke-linecap="round"/>
<path d="M257.245 215.155L264.223 203.665M282.532 173.517L275.181 185.939" stroke="black" stroke-opacity="0.6" stroke-width="2.79999" stroke-linecap="round"/>
<path d="M262.916 219.482L289.63 175.544" stroke="black" stroke-opacity="0.6" stroke-width="2.79999" stroke-linecap="round"/>
<path d="M277.976 208.538L286.081 195.315" stroke="black" stroke-opacity="0.6" stroke-width="2.79999" stroke-linecap="round"/>
<path d="M250.719 154.819C248.507 155.346 246.401 156.094 244.415 157.016L245.607 162.013C242.963 163.36 240.601 165.072 238.554 167.109L234.179 164.419C232.654 166.051 231.334 167.854 230.169 169.75C229.004 171.645 227.99 173.637 227.222 175.734L231.598 178.424C230.704 181.171 230.242 184.05 230.234 187.018L225.237 188.21C225.311 190.399 225.595 192.615 226.122 194.827C226.65 197.039 227.397 199.145 228.32 201.131L233.316 199.939C234.663 202.584 236.375 204.945 238.413 206.992L235.723 211.368C237.355 212.893 239.158 214.212 241.053 215.377C242.949 216.543 244.94 217.556 247.037 218.324L249.728 213.948C252.474 214.843 255.354 215.304 258.322 215.312L259.514 220.309C261.702 220.235 263.919 219.952 266.131 219.424C268.343 218.896 270.448 218.149 272.435 217.227L271.243 212.23C273.887 210.883 276.249 209.171 278.295 207.134L282.671 209.824C284.196 208.192 285.515 206.389 286.681 204.493C287.846 202.597 288.86 200.606 289.628 198.509L285.252 195.819C286.146 193.072 286.608 190.193 286.616 187.225L291.613 186.033C291.539 183.844 291.255 181.628 290.728 179.416C290.2 177.204 289.453 175.098 288.53 173.112L283.534 174.304C282.187 171.659 280.475 169.298 278.437 167.251L281.127 162.875C279.495 161.35 277.692 160.031 275.797 158.865C273.901 157.7 271.91 156.687 269.812 155.919L267.122 160.295C264.376 159.4 261.496 158.939 258.528 158.931L257.336 153.934C255.148 154.007 252.931 154.291 250.719 154.819V154.819ZM254.572 170.97C263.488 168.843 272.45 174.353 274.576 183.269C276.703 192.184 271.193 201.146 262.278 203.273C253.362 205.4 244.4 199.89 242.274 190.974C240.147 182.059 245.657 173.097 254.572 170.97Z" stroke="black" stroke-width="2.79999" stroke-linecap="round" stroke-linejoin="round"/>
<path d="M110.649 187.664L184.872 169.959" stroke="black" stroke-width="2.79999" stroke-linecap="round"/>
<path d="M153.984 245.869L199.849 234.928" stroke="black" stroke-width="2.79999" stroke-linecap="round"/>
<path d="M213.904 231.573L288.62 213.75" stroke="black" stroke-width="2.79999" stroke-linecap="round"/>
<path d="M229.069 159.675L274.441 148.852" stroke="black" stroke-width="2.79999" stroke-linecap="round"/>
<path d="M231.438 300.938C229.41 298.657 227.129 295.361 226.622 291.812C226.273 289.37 223.664 287.671 222.059 287.756" stroke="black" stroke-width="2.79999" stroke-linecap="round"/>
<path d="M222.312 291.814C222.312 289.955 222.464 286.288 218.002 286.49" stroke="black" stroke-width="2.79999" stroke-linecap="round"/>
<path d="M219.016 290.04C218.34 288.097 216.426 284.412 212.978 286.238" stroke="black" stroke-width="2.79999" stroke-linecap="round"/>
<path d="M216.228 292.32C215.129 291.644 213.693 288.872 212.679 285.222C211.665 281.571 206.341 278.462 203.806 277.363C202.454 276.772 199.75 276.451 199.75 279.898C199.75 282.94 207.203 285.577 207.609 290.039C208.014 294.5 207.778 296.461 207.609 296.883C207.186 297.728 205.682 298.759 203.046 296.123C200.409 293.486 196.962 292.827 195.187 293.334C193.666 293.841 191.537 295.565 195.187 298.404C197.899 300.514 206.797 304.438 214.707 314.375" stroke="black" stroke-width="2.79999" stroke-linecap="round"/>
<path d="M301.334 340.389C280.648 320.717 251.647 302.848 239.179 302.848C216.617 302.848 216.939 313.823 220.019 319.565C220.115 319.745 220.23 319.903 220.367 320.055C226.826 327.175 242.136 342.775 253.375 349.999" stroke="black" stroke-width="2.79999" stroke-linecap="round"/>
<path d="M23.3223 335.218C28.1896 328.322 40.8986 309.235 46.3912 299.981C50.1527 293.643 52.9732 286.597 53.9964 281.807C56.0244 272.313 61.855 255.189 79.6002 278.765C83.7979 284.342 87.8818 289.435 70.897 322.39" stroke="black" stroke-width="2.79999" stroke-linecap="round"/>
<path d="M86.4942 273.492C90.2039 268.926 96.9099 261.792 99.6208 256.798L104.044 249.236C107.04 244.422 108.323 240.498 109.468 238.37C109.977 237.424 110.293 236.706 110.998 235.3C111.638 234.025 112.201 232.736 111.754 231.679C111.412 230.87 109.986 229.453 107.016 230.262C104.045 231.071 102.019 233.579 101.378 234.732C100.735 235.688 97.9456 239.15 97.1815 239.91C95.406 241.676 86.6593 248.997 81.2043 244.708" stroke="black" stroke-width="2.79999" stroke-linecap="round"/>
<path d="M80.1432 237.617C84.6714 235.223 93.4676 230.907 96.5317 227.943C99.6787 227.334 107.45 228.352 106.666 224.179C106.502 223.31 103.766 221.154 99.6987 220.422C96.7716 219.895 94.6492 219.69 92.2175 220.996C90.8389 221.737 90.2921 222 88.5122 223.182C87.1306 223.791 86.2888 224.495 85.1607 225.27C84.0017 226.067 82.3231 227.334 79.9749 229.549" stroke="black" stroke-width="2.79999" stroke-linecap="round"/>
<path d="M88.5115 223.183C87.773 222.781 84.5815 222.807 80.819 224.67C76.7091 226.706 76.007 227.477 74.4155 228.527C72.824 229.577 69.641 231.677 68.3949 232.69C66.1901 234.483 64.181 236.503 63.3878 237.523C61.9912 239.68 62.7695 241.311 64.8686 245.327" stroke="black" stroke-width="2.79999" stroke-linecap="round"/>
<path d="M66.1277 252.782C66.1277 255.455 65.5204 261.79 63.6656 267.069" stroke="black" stroke-width="2.79999" stroke-linecap="round"/>
<path d="M102.922 232.692L67.1249 252.251C62.7999 253.942 59.7914 248.014 64.3293 246.013L80.1179 237.595M107.902 229.903L114.522 226.324L111.387 221.311L106.905 223.574" stroke="black" stroke-width="2.79999" stroke-linecap="round"/>
<path d="M115.414 225.837L119.146 220.313" stroke="black" stroke-width="2.79999" stroke-linecap="round"/>
<path d="M112.275 220.844L119.146 220.313" stroke="black" stroke-width="2.79999" stroke-linecap="round"/>
<path d="M129.357 115.2C130.089 122.837 119.242 124.315 118.774 115.575L117.712 46.8745L117.372 30.212C117.339 28.6435 118.602 27.3548 120.171 27.3548L127.453 27.3548M129.357 115.2L128.106 46.8751L127.453 27.3548M129.357 115.2L141.392 115.2C142.991 115.2 144.266 113.862 144.189 112.265L141.035 46.8751L140.253 30.025C140.183 28.5306 138.952 27.3548 137.456 27.3548L127.453 27.3548" stroke="black" stroke-width="2.79999" stroke-linecap="round"/>
<path d="M147.099 64.5731C144.059 59.3076 145.863 52.5746 151.128 49.5346L231.942 2.87698C237.207 -0.163046 243.94 1.64104 246.98 6.90653L271.836 49.9588C274.876 55.2243 273.072 61.9572 267.807 64.9973L186.993 111.655C181.728 114.695 174.995 112.891 171.955 107.625L147.099 64.5731Z" stroke="black" stroke-width="2.79999"/>
<ellipse cx="156.523" cy="58.8496" rx="2.78855" ry="3.04205" transform="rotate(-30 156.523 58.8496)" fill="black"/>
<path d="M248.006 61.6504L263.813 52.5242M256.052 62.8596L266.348 56.9151" stroke="black" stroke-width="2.79999" stroke-linecap="round"/>
<path d="M175.413 87.9492C178.589 85.7079 187.368 83.1608 198.372 89.4984C199.375 90.0761 200.674 89.336 200.628 88.1795C200.101 75.0067 201.616 61.7124 226.565 61.2376C228.016 61.21 228.761 58.9948 227.685 58.0196C220.716 51.6995 214.205 40.0824 223.518 25.9549C224.114 25.0519 223.305 23.7983 222.254 24.0546V24.0546C221.068 24.3439 220.44 22.976 221.488 22.3487C225.281 20.0775 229.326 18.5168 228.808 21.6239C228.056 26.1357 228.554 28.4268 231.011 31.2652" stroke="black" stroke-width="2.79999" stroke-linecap="round"/>
</svg>
