<svg width="418" height="352" viewBox="0 0 418 352" fill="none" xmlns="http://www.w3.org/2000/svg">
<path d="M95.4369 220.067L78.3716 153.273L300.407 96.5447L303.663 109.285" stroke="black" stroke-width="2.79999"/>
<path d="M103.532 251.752L116.524 302.604L121.319 301.379" stroke="black" stroke-width="2.79999"/>
<path d="M198.893 292.964L208.273 290.682" stroke="black" stroke-width="2.79999" stroke-linecap="round"/>
<path d="M223.229 287.132L300.675 268.476" stroke="black" stroke-width="2.79999" stroke-linecap="round"/>
<path d="M193.315 294.229L123.437 310.647L107.63 244.289" stroke="black" stroke-width="2.79999" stroke-linecap="round"/>
<path d="M102.044 220.968L87.6733 160.724L310.587 107.548L331.887 196.838" stroke="black" stroke-width="2.79999" stroke-linecap="round"/>
<path d="M33.1219 133.401C30.8983 133.878 28.776 134.577 26.7692 135.454L27.8466 140.477C25.172 141.763 22.7721 143.42 20.6792 145.41L16.3659 142.621C14.8042 144.218 13.444 145.99 12.2355 147.858C11.027 149.727 9.96852 151.694 9.15265 153.774L13.4659 156.563C12.509 159.288 11.9816 162.157 11.9057 165.124L6.88289 166.201C6.90656 168.391 7.13937 170.613 7.61633 172.837C8.09328 175.06 8.79237 177.183 9.66888 179.189L14.6917 178.112C15.9777 180.787 17.6351 183.186 19.6255 185.279L16.8359 189.593C18.4327 191.154 20.205 192.515 22.0736 193.723C23.942 194.932 25.9095 195.99 27.9887 196.806L30.7784 192.493C33.5035 193.45 36.372 193.977 39.3388 194.053L40.4162 199.076C42.606 199.052 44.8282 198.819 47.0518 198.342C49.2753 197.865 51.3976 197.166 53.4044 196.29L52.327 191.267C55.0017 189.981 57.4015 188.323 59.4945 186.333L63.8077 189.123C65.3695 187.526 66.7296 185.754 67.9381 183.885C69.1466 182.017 70.2051 180.049 71.021 177.97L66.7078 175.18C67.6647 172.455 68.192 169.587 68.268 166.62L73.2908 165.542C73.2671 163.353 73.0343 161.13 72.5573 158.907C72.0804 156.683 71.3813 154.561 70.5048 152.554L65.482 153.632C64.1959 150.957 62.5385 148.557 60.5481 146.464L63.3378 142.151C61.7409 140.589 59.9686 139.229 58.1001 138.02C56.2316 136.812 54.2642 135.753 52.1849 134.938L49.3953 139.251C46.6701 138.294 43.8016 137.767 40.8348 137.691L39.7574 132.668C37.5677 132.691 35.3454 132.924 33.1219 133.401ZM36.6044 149.636C45.5662 147.714 54.3997 153.427 56.3221 162.389C58.2444 171.351 52.5311 180.185 43.5693 182.107C34.6074 184.029 25.7739 178.316 23.8516 169.354C21.9293 160.392 27.6425 151.559 36.6044 149.636Z" fill="#A855F7"/>
<path d="M162.43 175.97C160.218 176.498 158.112 177.245 156.126 178.167L157.318 183.164C154.673 184.511 152.312 186.223 150.265 188.261L145.889 185.57C144.364 187.203 143.045 189.006 141.879 190.901C140.714 192.797 139.701 194.788 138.933 196.885L143.309 199.576C142.414 202.322 141.953 205.202 141.945 208.169L136.948 209.361C137.021 211.55 137.305 213.766 137.833 215.978C138.36 218.191 139.108 220.296 140.03 222.283L145.027 221.091C146.374 223.735 148.086 226.096 150.123 228.143L147.433 232.519C149.065 234.044 150.868 235.363 152.764 236.529C154.659 237.694 156.651 238.707 158.748 239.476L161.438 235.1C164.185 235.994 167.064 236.456 170.032 236.464L171.224 241.461C173.413 241.387 175.629 241.103 177.841 240.576C180.053 240.048 182.159 239.3 184.145 238.378L182.953 233.381C185.598 232.035 187.959 230.323 190.006 228.285L194.382 230.975C195.907 229.343 197.226 227.54 198.391 225.644C199.557 223.749 200.57 221.758 201.338 219.66L196.962 216.97C197.857 214.224 198.318 211.344 198.326 208.376L203.323 207.184C203.249 204.995 202.966 202.779 202.438 200.567C201.91 198.355 201.163 196.249 200.241 194.263L195.244 195.455C193.897 192.81 192.185 190.449 190.147 188.402L192.838 184.026C191.206 182.502 189.403 181.182 187.507 180.017C185.611 178.851 183.62 177.838 181.523 177.07L178.833 181.446C176.086 180.552 173.206 180.09 170.239 180.082L169.047 175.085C166.858 175.159 164.642 175.442 162.43 175.97V175.97ZM166.283 192.121C175.198 189.995 184.16 195.504 186.287 204.42C188.414 213.335 182.904 222.297 173.988 224.424C165.073 226.551 156.111 221.041 153.984 212.126C151.857 203.21 157.367 194.248 166.283 192.121Z" stroke="black" stroke-width="2.79999" stroke-linecap="round" stroke-linejoin="round"/>
<path d="M180.181 249.811C179.118 250.065 178.105 250.424 177.15 250.868L177.723 253.271C176.451 253.918 175.316 254.742 174.331 255.722L172.227 254.428C171.493 255.213 170.859 256.08 170.298 256.991C169.738 257.903 169.251 258.861 168.881 259.869L170.986 261.163C170.556 262.484 170.334 263.869 170.33 265.296L167.927 265.869C167.962 266.922 168.099 267.988 168.352 269.051C168.606 270.115 168.966 271.128 169.409 272.083L171.812 271.51C172.46 272.782 173.283 273.917 174.263 274.902L172.969 277.006C173.754 277.739 174.621 278.374 175.533 278.934C176.445 279.495 177.402 279.982 178.411 280.352L179.705 278.247C181.025 278.677 182.41 278.899 183.837 278.903L184.411 281.306C185.463 281.271 186.529 281.134 187.593 280.881C188.657 280.627 189.669 280.267 190.625 279.824L190.051 277.421C191.323 276.773 192.459 275.95 193.443 274.97L195.548 276.264C196.281 275.479 196.915 274.612 197.476 273.7C198.036 272.788 198.524 271.831 198.893 270.822L196.789 269.528C197.219 268.208 197.441 266.823 197.445 265.395L199.848 264.822C199.812 263.77 199.676 262.704 199.422 261.64C199.168 260.576 198.809 259.563 198.365 258.608L195.962 259.181C195.315 257.91 194.491 256.774 193.511 255.79L194.805 253.685C194.02 252.952 193.153 252.317 192.241 251.757C191.33 251.196 190.372 250.709 189.364 250.34L188.07 252.444C186.749 252.014 185.364 251.792 183.937 251.788L183.364 249.385C182.311 249.421 181.245 249.557 180.181 249.811V249.811ZM182.034 257.578C186.322 256.555 190.632 259.205 191.655 263.493C192.677 267.78 190.028 272.09 185.74 273.113C181.452 274.136 177.143 271.486 176.12 267.199C175.097 262.911 177.747 258.601 182.034 257.578Z" stroke="black" stroke-opacity="0.7" stroke-width="2.79999" stroke-linecap="round" stroke-linejoin="round"/>
<path d="M302.565 243.048L313.616 217.363C323.902 193.454 353.008 184.238 375.181 197.87C397.393 211.526 402.279 241.73 385.506 261.692L367.518 283.099C355.225 297.73 334.072 301.151 317.793 291.143C301.481 281.115 294.998 260.637 302.565 243.048Z" stroke="#A855F7" stroke-width="2.79999"/>
<path d="M309.342 229.822L313.746 218.832C323.421 194.693 352.502 185.081 374.656 198.702C396.855 212.349 401.371 242.721 384.103 262.237L376.258 271.103C363.413 285.62 341.993 288.805 325.481 278.653C308.929 268.477 302.114 247.857 309.342 229.822Z" fill="#A855F7"/>
<circle cx="170.109" cy="208.035" r="6.96565" transform="rotate(-13.417 170.109 208.035)" stroke="black" stroke-width="2.79999"/>
<circle cx="170.109" cy="208.036" r="10.5147" transform="rotate(-13.417 170.109 208.036)" stroke="black" stroke-width="2.79999"/>
<path d="M158.18 156.933L189.003 286.144" stroke="black" stroke-width="2.79999" stroke-linecap="round" stroke-dasharray="16.8 16.8"/>
<path d="M213.695 140.562L235.577 232.292" stroke="black" stroke-width="2.79999" stroke-linecap="round" stroke-dasharray="16.8 16.8"/>
<path d="M247.311 135.03L272.252 239.583" stroke="black" stroke-width="2.79999" stroke-linecap="round" stroke-dasharray="16.8 16.8"/>
<path d="M283.825 137.389L303.707 220.735" stroke="black" stroke-width="2.79999" stroke-linecap="round" stroke-dasharray="16.8 16.8"/>
<path d="M152.616 273.453L213.276 258.983" stroke="black" stroke-width="2.79999" stroke-linecap="round" stroke-dasharray="16.8 16.8"/>
<path d="M121.096 219.988L307.515 175.519" stroke="black" stroke-width="2.79999" stroke-linecap="round" stroke-dasharray="16.8 16.8"/>
<path d="M154.145 279.865L160.556 278.336" stroke="black" stroke-width="2.79999" stroke-linecap="round"/>
<path d="M223.257 257.125L265.67 247.008" stroke="black" stroke-width="2.79999" stroke-linecap="round"/>
<path d="M224.668 263.042L263.629 253.748" stroke="black" stroke-width="2.79999" stroke-linecap="round"/>
<path d="M225.492 266.494L246.699 261.435" stroke="black" stroke-width="2.79999" stroke-linecap="round"/>
<path d="M154.969 283.317L168.284 280.141" stroke="black" stroke-width="2.79999" stroke-linecap="round"/>
<path d="M230.94 177.679L238.075 166.073" stroke="black" stroke-opacity="0.6" stroke-width="2.79999" stroke-linecap="round"/>
<path d="M227.224 197.279L253.886 153.911" stroke="black" stroke-opacity="0.6" stroke-width="2.79999" stroke-linecap="round"/>
<path d="M233.709 200.282L242.369 186.189M259.354 158.81L250.473 173.014" stroke="black" stroke-opacity="0.6" stroke-width="2.79999" stroke-linecap="round"/>
<path d="M238.566 205.935L245.216 195.118M267.106 159.513L260.613 170.074" stroke="black" stroke-opacity="0.6" stroke-width="2.79999" stroke-linecap="round"/>
<path d="M241.296 215.047L250.268 200.454M275.832 158.557L267.466 172.5" stroke="black" stroke-opacity="0.6" stroke-width="2.79999" stroke-linecap="round"/>
<path d="M249.972 214.49L256.672 203.593M279.381 166.924L273.043 176.81" stroke="black" stroke-opacity="0.6" stroke-width="2.79999" stroke-linecap="round"/>
<path d="M257.896 215.155L264.874 203.665M283.184 173.517L275.832 185.939" stroke="black" stroke-opacity="0.6" stroke-width="2.79999" stroke-linecap="round"/>
<path d="M263.567 219.482L290.281 175.544" stroke="black" stroke-opacity="0.6" stroke-width="2.79999" stroke-linecap="round"/>
<path d="M278.627 208.538L286.733 195.315" stroke="black" stroke-opacity="0.6" stroke-width="2.79999" stroke-linecap="round"/>
<path d="M251.371 154.819C249.159 155.346 247.053 156.094 245.067 157.016L246.259 162.013C243.614 163.36 241.253 165.072 239.206 167.109L234.83 164.419C233.305 166.051 231.986 167.854 230.82 169.75C229.655 171.645 228.642 173.637 227.874 175.734L232.249 178.424C231.355 181.171 230.893 184.05 230.885 187.018L225.889 188.21C225.962 190.399 226.246 192.615 226.774 194.827C227.301 197.039 228.049 199.145 228.971 201.131L233.968 199.939C235.315 202.584 237.026 204.945 239.064 206.992L236.374 211.368C238.006 212.893 239.809 214.212 241.705 215.377C243.6 216.543 245.591 217.556 247.689 218.324L250.379 213.948C253.125 214.843 256.005 215.304 258.973 215.312L260.165 220.309C262.354 220.235 264.57 219.952 266.782 219.424C268.994 218.896 271.1 218.149 273.086 217.227L271.894 212.23C274.539 210.883 276.9 209.171 278.947 207.134L283.323 209.824C284.848 208.192 286.167 206.389 287.332 204.493C288.498 202.597 289.511 200.606 290.279 198.509L285.903 195.819C286.797 193.072 287.259 190.193 287.267 187.225L292.264 186.033C292.19 183.844 291.907 181.628 291.379 179.416C290.851 177.204 290.104 175.098 289.182 173.112L284.185 174.304C282.838 171.659 281.126 169.298 279.088 167.251L281.779 162.875C280.147 161.35 278.344 160.031 276.448 158.865C274.552 157.7 272.561 156.687 270.464 155.919L267.774 160.295C265.027 159.4 262.147 158.939 259.18 158.931L257.988 153.934C255.799 154.007 253.583 154.291 251.371 154.819V154.819ZM255.223 170.97C264.139 168.843 273.101 174.353 275.228 183.269C277.354 192.184 271.845 201.146 262.929 203.273C254.014 205.4 245.052 199.89 242.925 190.974C240.798 182.059 246.308 173.097 255.223 170.97Z" stroke="black" stroke-width="2.79999" stroke-linecap="round" stroke-linejoin="round"/>
<path d="M111.301 187.664L185.523 169.959" stroke="black" stroke-width="2.79999" stroke-linecap="round"/>
<path d="M154.636 245.869L200.501 234.928" stroke="black" stroke-width="2.79999" stroke-linecap="round"/>
<path d="M214.556 231.573L289.271 213.75" stroke="black" stroke-width="2.79999" stroke-linecap="round"/>
<path d="M229.721 159.675L275.092 148.852" stroke="black" stroke-width="2.79999" stroke-linecap="round"/>
<path d="M232.09 300.938C230.062 298.657 227.78 295.361 227.273 291.812C226.924 289.37 224.315 287.671 222.71 287.756" stroke="black" stroke-width="2.79999" stroke-linecap="round"/>
<path d="M222.963 291.814C222.963 289.955 223.115 286.288 218.654 286.49" stroke="black" stroke-width="2.79999" stroke-linecap="round"/>
<path d="M219.668 290.04C218.992 288.097 217.077 284.412 213.629 286.238" stroke="black" stroke-width="2.79999" stroke-linecap="round"/>
<path d="M216.879 292.32C215.781 291.644 214.344 288.872 213.33 285.222C212.316 281.571 206.993 278.462 204.458 277.363C203.105 276.772 200.401 276.451 200.401 279.898C200.401 282.94 207.854 285.577 208.26 290.039C208.666 294.5 208.429 296.461 208.26 296.883C207.838 297.728 206.333 298.759 203.697 296.123C201.061 293.486 197.613 292.827 195.838 293.334C194.317 293.841 192.188 295.565 195.838 298.404C198.551 300.514 207.449 304.438 215.358 314.375" stroke="black" stroke-width="2.79999" stroke-linecap="round"/>
<path d="M301.985 340.389C281.299 320.717 252.298 302.848 239.83 302.848C217.268 302.848 217.59 313.823 220.67 319.565C220.767 319.745 220.881 319.903 221.018 320.055C227.478 327.175 242.788 342.775 254.026 349.999" stroke="black" stroke-width="2.79999" stroke-linecap="round"/>
<path d="M23.9737 335.218C28.8409 328.322 41.55 309.235 47.0426 299.981C50.8041 293.643 53.6245 286.597 54.6477 281.807C56.6757 272.313 62.5064 255.189 80.2516 278.765C84.4493 284.342 88.5332 289.435 71.5484 322.39" stroke="black" stroke-width="2.79999" stroke-linecap="round"/>
<path d="M87.1455 273.492C90.8552 268.926 97.5613 261.792 100.272 256.798L104.695 249.236C107.692 244.422 108.974 240.498 110.119 238.37C110.628 237.424 110.945 236.706 111.65 235.3C112.289 234.025 112.852 232.736 112.405 231.679C112.064 230.87 110.637 229.453 107.667 230.262C104.697 231.071 102.671 233.579 102.029 234.732C101.387 235.688 98.597 239.15 97.8329 239.91C96.0574 241.676 87.3106 248.997 81.8556 244.708" stroke="black" stroke-width="2.79999" stroke-linecap="round"/>
<path d="M80.7946 237.617C85.3228 235.223 94.119 230.907 97.1831 227.943C100.33 227.334 108.102 228.352 107.317 224.179C107.154 223.31 104.418 221.154 100.35 220.422C97.4229 219.895 95.3005 219.69 92.8689 220.996C91.4903 221.737 90.9435 222 89.1635 223.182C87.7819 223.791 86.9402 224.495 85.8121 225.27C84.6531 226.067 82.9745 227.334 80.6263 229.549" stroke="black" stroke-width="2.79999" stroke-linecap="round"/>
<path d="M89.1629 223.183C88.4244 222.781 85.2329 222.807 81.4704 224.67C77.3605 226.706 76.6584 227.477 75.0669 228.527C73.4754 229.577 70.2924 231.677 69.0463 232.69C66.8415 234.483 64.8323 236.503 64.0391 237.523C62.6426 239.68 63.4209 241.311 65.52 245.327" stroke="black" stroke-width="2.79999" stroke-linecap="round"/>
<path d="M66.779 252.782C66.779 255.455 66.1718 261.79 64.317 267.069" stroke="black" stroke-width="2.79999" stroke-linecap="round"/>
<path d="M103.574 232.692L67.7763 252.251C63.4513 253.942 60.4427 248.014 64.9807 246.013L80.7693 237.595M108.553 229.903L115.173 226.324L112.038 221.311L107.557 223.574" stroke="black" stroke-width="2.79999" stroke-linecap="round"/>
<path d="M116.065 225.837L119.798 220.313" stroke="black" stroke-width="2.79999" stroke-linecap="round"/>
<path d="M112.926 220.844L119.798 220.313" stroke="black" stroke-width="2.79999" stroke-linecap="round"/>
<path d="M130.008 115.2C130.741 122.837 119.893 124.315 119.425 115.575L118.363 46.8745L118.023 30.212C117.991 28.6435 119.254 27.3548 120.822 27.3548L128.105 27.3548M130.008 115.2L128.757 46.8751L128.105 27.3548M130.008 115.2L142.043 115.2C143.643 115.2 144.917 113.862 144.84 112.265L141.686 46.8751L140.904 30.025C140.835 28.5306 139.603 27.3548 138.107 27.3548L128.105 27.3548" stroke="black" stroke-width="2.79999" stroke-linecap="round"/>
<path d="M147.75 64.5731C144.71 59.3076 146.514 52.5746 151.78 49.5346L232.593 2.87698C237.858 -0.163046 244.591 1.64104 247.631 6.90653L272.488 49.9588C275.528 55.2243 273.724 61.9572 268.458 64.9973L187.645 111.655C182.379 114.695 175.646 112.891 172.606 107.625L147.75 64.5731Z" stroke="black" stroke-width="2.79999"/>
<ellipse cx="157.175" cy="58.8496" rx="2.78855" ry="3.04205" transform="rotate(-30 157.175 58.8496)" fill="black"/>
<path d="M248.657 61.6504L264.464 52.5242M256.703 62.8596L266.999 56.9151" stroke="black" stroke-width="2.79999" stroke-linecap="round"/>
<path d="M176.064 87.9492C179.241 85.7079 188.02 83.1608 199.024 89.4984C200.026 90.0761 201.325 89.336 201.279 88.1795C200.753 75.0067 202.267 61.7124 227.216 61.2376C228.668 61.21 229.412 58.9948 228.337 58.0196C221.367 51.6995 214.857 40.0824 224.17 25.9549C224.765 25.0519 223.956 23.7983 222.905 24.0546V24.0546C221.719 24.3439 221.092 22.976 222.139 22.3487C225.932 20.0775 229.978 18.5168 229.46 21.6239C228.708 26.1357 229.205 28.4268 231.662 31.2652" stroke="black" stroke-width="2.79999" stroke-linecap="round"/>
</svg>
